<svg xmlns="http://www.w3.org/2000/svg" x="0px" y="0px" width="96" height="96" viewBox="0,0,256,256"
style="fill:#000000;">
<g fill="#ff0000" fill-rule="evenodd" stroke="none" stroke-width="1" stroke-linecap="butt" stroke-linejoin="miter" stroke-miterlimit="10" stroke-dasharray="" stroke-dashoffset="0" font-family="none" font-weight="none" font-size="none" text-anchor="none" style="mix-blend-mode: normal"><g transform="scale(5.33333,5.33333)"><path d="M5.271,10.155c4.896,-1.983 12.974,-2.241 16.483,-2.109l2.246,2.884l2.247,-2.884c3.509,-0.132 11.587,0.125 16.482,2.109c-0.676,1.284 -3.617,3.11 -5.233,3.516c-0.092,-2.523 -3.658,-3.049 -7.079,-3.049l-6.418,34.418l-6.417,-34.419c-3.425,0 -6.991,0.526 -7.083,3.049c-1.614,-0.405 -4.553,-2.231 -5.228,-3.515z"></path><path d="M3,6.734l1.253,1.839c4.753,-1.668 10.394,-2.47 16.347,-2.65c2.253,-0.069 4.547,-0.069 6.798,0c5.953,0.179 11.595,0.981 16.348,2.65l1.254,-1.839c-5.613,-1.902 -11.577,-2.536 -17.532,-2.69c-2.307,-0.059 -4.63,-0.059 -6.933,0c-5.96,0.154 -11.921,0.788 -17.535,2.69z"></path></g></g>
</svg>